<?xml version="1.0" encoding="UTF-8" standalone="no"?>
<!-- Generator: Adobe Illustrator 16.0.0, SVG Export Plug-In . SVG Version: 6.00 Build 0)  -->

<svg
   version="1.1"
   id="Layer_1"
   x="0px"
   y="0px"
   width="558.235px"
   height="178.229px"
   viewBox="0 0 558.235 178.229"
   enable-background="new 0 0 558.235 178.229"
   xml:space="preserve"
   sodipodi:docname="dive-wave.svg"
   inkscape:version="1.2.2 (b0a8486541, 2022-12-01)"
   xmlns:inkscape="http://www.inkscape.org/namespaces/inkscape"
   xmlns:sodipodi="http://sodipodi.sourceforge.net/DTD/sodipodi-0.dtd"
   xmlns="http://www.w3.org/2000/svg"
   xmlns:svg="http://www.w3.org/2000/svg"><defs
   id="defs7" /><sodipodi:namedview
   id="namedview5"
   pagecolor="#ffffff"
   bordercolor="#000000"
   borderopacity="0.25"
   inkscape:showpageshadow="2"
   inkscape:pageopacity="0.0"
   inkscape:pagecheckerboard="0"
   inkscape:deskcolor="#d1d1d1"
   showgrid="false"
   inkscape:zoom="2.4308759"
   inkscape:cx="279.94025"
   inkscape:cy="89.268235"
   inkscape:window-width="1920"
   inkscape:window-height="1011"
   inkscape:window-x="0"
   inkscape:window-y="0"
   inkscape:window-maximized="1"
   inkscape:current-layer="Layer_1" />
<path
   fill="#829fbd"
   d="m 233.204,9.827 c 3.273,-8.304 9.559,-10.081 11.749,-5.192 2.19,4.888 15.688,-14.077 20.773,1.905 5.084,15.983 14.712,0.443 22.391,1.15 7.679,0.709 12.687,-3.585 19.42,0.635 6.734,4.219 3.883,10.636 22.911,11.25 19.028,0.614 20.177,-7.011 28.77,-1.031 8.592,5.979 19.438,4.289 21.682,4.301 2.243,0.012 13.544,-1.604 13.227,2.037 -0.316,3.642 15.873,-2.31 13.945,3.999 -1.929,6.309 21.099,-7.532 22.418,2.854 1.318,10.387 15.572,4.451 19.279,6.786 3.707,2.335 10.781,-7.091 14.764,-2.01 3.983,5.081 14.41,10.548 17.893,6.778 3.481,-3.77 12.261,-6.617 13.724,-2.621 1.463,3.996 7.114,9.278 11.055,7.066 3.939,-2.212 8.799,-12.397 11.035,-3.805 2.238,8.593 11.612,5.893 14.185,1.889 2.573,-4.004 8.892,-4.019 9.472,-0.324 0.58,3.695 9.607,7.948 8.094,0.488 -1.513,-7.46 12.43,-1.642 6.973,2.909 -5.459,4.551 -11.469,10.3 -11.469,10.3 l -9.636,1.965 -9.836,3.266 -19.23,3.428 4.88566,10.604146 0.36835,-1.095112 -0.22201,0.657703 0.29284,-0.379157 -8.50059,6.315618 -8.23979,9.682434 -2.03068,9.435788 0.58112,7.85109 -8.853,17.55585 -7.28846,22.80466 -86.22506,20.76801 c 0,0 -305.87638,4.84997 -304.55838,1.34297 0.387,-1.03 -0.005,-148.165 -0.005,-148.165 l 81.51,8.783 10.249,-13.387 18.789,-0.365 10.638,3.375 8.667,-10.804 4.921,-5.213 z"
   id="path2"
   sodipodi:nodetypes="cccccscscccsscsccsssccccccccccccccccccccccccc" />
</svg>
