<?xml version="1.0" encoding="utf-8"?>
<!-- Generator: Adobe Illustrator 16.0.0, SVG Export Plug-In . SVG Version: 6.00 Build 0)  -->
<!DOCTYPE svg PUBLIC "-//W3C//DTD SVG 1.1//EN" "http://www.w3.org/Graphics/SVG/1.1/DTD/svg11.dtd">
<svg version="1.1"
	 id="Layer_1" inkscape:version="1.2.2 (b0a8486541, 2022-12-01)" sodipodi:docname="2dive-wave.svg" xmlns:inkscape="http://www.inkscape.org/namespaces/inkscape" xmlns:sodipodi="http://sodipodi.sourceforge.net/DTD/sodipodi-0.dtd" xmlns:svg="http://www.w3.org/2000/svg"
	 xmlns="http://www.w3.org/2000/svg" xmlns:xlink="http://www.w3.org/1999/xlink" x="0px" y="0px" width="969px" height="392px"
	 viewBox="0 0 969 392" enable-background="new 0 0 969 392" xml:space="preserve">
<path opacity="0.8" fill="#829FBD" d="M254.671,20.003c-0.228,0.524-0.452,1.06-0.668,1.61l-6.193-1.196
	C215.919,121.616,91.466,124.36,0.252,119.125c0.022,9.684,0.046,20.304,0.07,31.567C57.731,163.387,119.701,161.219,174,139.5
	c40-15,64-53,82-91C259.416,39.106,259.17,28.987,254.671,20.003z"/>
<path opacity="0.2" fill="#829FBD" d="M45,96.5c62-8,133-7,175-59c4.729-5.404,8.093-13.086,12.858-19.971l-4.008-0.774
	l-10.823,11.465l-19.063,23.763l-23.397-7.423l-41.325,0.803l-22.542,29.444L0.116,65.582c0,0,0.028,9.947,0.069,26.288
	C14.645,96.173,29.4,98.45,45,96.5z"/>
<path opacity="0.5" fill="#829FBD" d="M232.858,17.529C228.094,24.414,224.729,32.096,220,37.5c-42,52-113,51-175,59
	c-15.6,1.95-30.355-0.327-44.814-4.63c0.02,7.768,0.042,16.974,0.066,27.255c91.214,5.235,215.667,2.491,247.558-98.708
	L232.858,17.529z"/>
<path fill="#829FBD" d="M950.755,101.131c3.326,16.408-16.528,7.054-17.804-1.071c-1.273-8.129-15.172-8.096-20.833,0.711
	c-5.661,8.806-26.278,14.745-31.199-4.155c-4.918-18.896-15.609,3.503-24.271,8.369c-8.67,4.865-21.097-6.75-24.314-15.539
	c-3.22-8.789-22.531-2.529-30.187,5.765c-7.661,8.292-30.597-3.732-39.354-14.908c-8.763-11.175-24.321,9.557-32.475,4.421
	c-8.153-5.135-39.504,7.922-42.4-14.925c-2.9-22.843-53.551,7.599-49.309-6.277c4.242-13.878-31.363-0.785-30.669-8.795
	c0.695-8.008-24.158-4.454-29.094-4.48s-28.79,3.691-47.688-9.459c-18.899-13.155-21.429,3.616-63.277,2.268
	c-41.851-1.351-35.582-15.464-50.391-24.744c-14.809-9.284-25.823,0.161-42.713-1.399c-16.892-1.555-38.067,32.624-49.249-2.527
	c-11.183-35.151-40.872,6.561-45.687-4.19c-4.671-10.429-17.819-7.067-25.172,9.809c4.5,8.984,4.746,19.103,1.33,28.497
	c-18,38-42,76-82,91c-54.299,21.719-116.27,23.887-173.679,11.192c0.195,92.757,0.385,228.321-0.172,229.812
	c-2.898,7.713,639.412,1.348,639.412,1.348l80.064-58.482l3.344-61.574l-0.886-6.359l3.447-6.82l22.725-26.164l9.943-29.131
	l5.716-24.794l0.525-2.512l3.261-3.636l22.268-7.645l65.776-5.503l42.294-7.54l21.634-7.186l21.193-4.322
	c0,0,13.219-12.645,25.226-22.654C978.094,97.52,947.425,84.724,950.755,101.131z"/>
</svg>
